<svg id="ff55c2b4-57d4-4f72-a5a7-49d4afdca85c" data-name="Banner" xmlns="http://www.w3.org/2000/svg" viewBox="0 0 942.11 492.11">
  <g>
    <path d="M333.77,473.82a70.19,70.19,0,0,1-70.1-70.12V298.22h26.71V403.7a43.37,43.37,0,1,0,86.73,0V164.52h26.71V403.7A70.16,70.16,0,0,1,333.77,473.82Z" style="fill: #ccd793"/>
    <path d="M450.83,213.43H424.12v-55.2a10,10,0,1,0-20.09,0v10.12H377.32V158.23a36.76,36.76,0,1,1,73.51,0Z" style="fill: #ccd793"/>
    <rect x="387.8" y="164.52" width="5.34" height="5.34" style="fill: #282d33"/>
    <path d="M333.77,463.14c-1.36,0-2.75-.05-4.11-.14l.36-5.33a55.21,55.21,0,0,0,10.37-.28l.64,5.31A60.59,60.59,0,0,1,333.77,463.14Zm-15.35-2a58.8,58.8,0,0,1-10.67-4l2.34-4.8A54.29,54.29,0,0,0,319.8,456Zm33.74-.9-1.66-5.08A53.42,53.42,0,0,0,360,451l2.6,4.67A59.4,59.4,0,0,1,352.16,460.23ZM298,451.18a60.1,60.1,0,0,1-8.4-7.7l4-3.57a54.6,54.6,0,0,0,7.65,7Zm73.93-2-3.44-4.09a54.6,54.6,0,0,0,7.25-7.41l4.16,3.36A60.7,60.7,0,0,1,372,449.2Zm-89.11-14.86a58.79,58.79,0,0,1-4.92-10.28l5-1.83a54.2,54.2,0,0,0,4.47,9.35Zm103.36-2.78-4.72-2.51a53.31,53.31,0,0,0,4-9.57l5.11,1.55A58.67,58.67,0,0,1,386.22,431.56ZM275.08,413a60.51,60.51,0,0,1-.73-9.33v-1.94h5.34v1.94a54.74,54.74,0,0,0,.67,8.5Zm117.74-3.16-5.31-.55a55.22,55.22,0,0,0,.29-5.62v-5h5.34v5A60.26,60.26,0,0,1,392.82,409.87Zm-113.13-19h-5.34V380h5.34Zm113.45-3.05H387.8v-10.9h5.34ZM279.69,369.07h-5.34v-10.9h5.34ZM393.14,366H387.8V355.12h5.34ZM279.69,347.27h-5.34v-10.9h5.34Zm113.45-3H387.8v-10.9h5.34ZM279.69,325.48h-5.34v-10.9h5.34Zm113.45-3.06H387.8V311.53h5.34Zm0-21.79H387.8v-10.9h5.34Zm0-21.8H387.8V267.94h5.34Zm0-21.79H387.8v-10.9h5.34Zm0-21.8H387.8V224.35h5.34Zm0-21.79H387.8v-10.9h5.34Zm0-21.8H387.8V180.76h5.34Z"/>
    <path d="M291.35,310.28h-28V139.49a74.49,74.49,0,1,0-149,0v35.22H86.47V139.49a102.44,102.44,0,1,1,204.88,0Z" style="fill: #76d0d8"/>
    <g>
      <rect x="97.78" y="145.61" width="5.34" height="5.34"/>
      <path d="M280,253.8H274.7V243.31H280Zm0-21H274.7V222.33H280Zm0-21H274.7V201.36H280Zm0-21H274.7V180.38H280Zm0-21H274.7V159.41H280Zm0-21H274.7V138.46l5.34-.06ZM103.22,135.26,97.88,135A93.6,93.6,0,0,1,99,124.27l5.27.88A85.14,85.14,0,0,0,103.22,135.26ZM274,128.33a84.06,84.06,0,0,0-1.91-10l5.18-1.31a90.5,90.5,0,0,1,2,10.6ZM106.59,115.25l-5.13-1.51a89.82,89.82,0,0,1,3.66-10.16l4.91,2.1A85.92,85.92,0,0,0,106.59,115.25ZM269,108.67a85.5,85.5,0,0,0-4.21-9.25l4.72-2.49a90.49,90.49,0,0,1,4.48,9.82ZM114.58,96.59,110,93.92a92.24,92.24,0,0,1,6-9l4.28,3.19A87.6,87.6,0,0,0,114.58,96.59Zm144.93-5.85a89.35,89.35,0,0,0-6.26-8l4-3.53a91.74,91.74,0,0,1,6.65,8.5ZM126.73,80.33l-3.87-3.68a91.49,91.49,0,0,1,7.88-7.37l3.41,4.11A86.91,86.91,0,0,0,126.73,80.33Zm119.36-4.81a87.66,87.66,0,0,0-8-6.33l3.07-4.37a92.21,92.21,0,0,1,8.45,6.72ZM142.34,67.36l-2.91-4.48a92.41,92.41,0,0,1,9.39-5.32l2.35,4.79A87.44,87.44,0,0,0,142.34,67.36Zm87.14-3.51a85.62,85.62,0,0,0-9.22-4.29l2-5a92.56,92.56,0,0,1,9.8,4.56Zm-68.94-5.42-1.77-5a90.23,90.23,0,0,1,10.39-3l1.15,5.22A83.54,83.54,0,0,0,160.54,58.43Zm50.06-2a85.75,85.75,0,0,0-10-2l.73-5.29A90.14,90.14,0,0,1,212,51.24ZM180.35,54l-.53-5.31a92.35,92.35,0,0,1,10.78-.43l-.1,5.34A90.47,90.47,0,0,0,180.35,54Z"/>
    </g>
    <path d="M801.83,257.53h-5.35v-112a93,93,0,1,0-186,0v81.89h-5.35V145.54a98.35,98.35,0,1,1,196.7,0Z"/>
    <path d="M476.32,365a10.34,10.34,0,1,1,10.34-10.34A10.35,10.35,0,0,1,476.32,365Zm0-15.33a5,5,0,1,0,5,5A5,5,0,0,0,476.32,349.7Z"/>
    <path d="M805.64,102.57a10.73,10.73,0,1,1,11.07-10.73A10.91,10.91,0,0,1,805.64,102.57Zm0-15.9A5.18,5.18,0,1,0,811,91.84,5.27,5.27,0,0,0,805.64,86.67Z"/>
    <path d="M54.69,152.38A10.34,10.34,0,1,1,65,142,10.35,10.35,0,0,1,54.69,152.38Zm0-15.33a5,5,0,1,0,5,5A5,5,0,0,0,54.69,137.05Z"/>
    <g>
      <path d="M114.41,356.82h-3.67a.82.82,0,0,0-.82.83v5.93a.83.83,0,0,0,.82.84h3.67" style="fill: #fff"/>
      <path d="M110.74,354.77h3.67v4.09H112v3.51h2.44v4.09h-3.67a2.88,2.88,0,0,1-2.87-2.88v-5.93A2.88,2.88,0,0,1,110.74,354.77Z"/>
    </g>
    <polygon points="200.85 354.77 202.89 354.77 215.77 360.61 202.89 366.45 200.85 366.45 200.85 362.36 202 362.36 205.86 360.61 202 358.87 200.85 358.87 200.85 354.77"/>
    <rect x="125.73" y="354.69" width="76.48" height="11.85" style="fill: #76d0d8"/>
    <rect x="114.4" y="354.69" width="8.41" height="11.85" style="fill: #167f89"/>
    <rect x="122.37" y="354.69" width="4.09" height="11.85"/>
    <path d="M252,259v-8.11l-6.72-.56a15.87,15.87,0,0,0-1.18-3l4.51-5.33-5.73-5.73-5.15,4.36a16.48,16.48,0,0,0-3-1.32l-.58-6.95h-8.1l-.56,6.73a15.06,15.06,0,0,0-3,1.17l-5.33-4.51-5.73,5.73,4.36,5.15a17.21,17.21,0,0,0-1.32,3l-7,.58v8.11l6.73.56a15.84,15.84,0,0,0,1.17,3l-4.51,5.33,5.73,5.73,5.15-4.36a16.26,16.26,0,0,0,3,1.32l.58,7h8.1l.56-6.73a15.21,15.21,0,0,0,3-1.17l5.33,4.51,5.73-5.73-4.36-5.15a16.26,16.26,0,0,0,1.32-3Zm-22.24,3.32a7.75,7.75,0,1,1,7.74-7.75A7.75,7.75,0,0,1,229.73,262.29Z" style="fill: #1bb1bf"/>
    <path d="M352.94,310.74V297.18l-12.06-1a37,37,0,0,0-4.76-12.32l8.06-9.51-9.6-9.6-9.23,7.82a36.94,36.94,0,0,0-12.08-5.35l-1-12.43H298.68l-1,12.06a36.79,36.79,0,0,0-12.32,4.76l-9.52-8.06-9.6,9.59,7.82,9.24a36.71,36.71,0,0,0-5.34,12.08l-12.43,1v13.57l12.06,1a36.79,36.79,0,0,0,4.76,12.32l-8.05,9.52,9.59,9.59,9.23-7.81A36.71,36.71,0,0,0,296,339l1,12.43h13.57l1-12.06a36.59,36.59,0,0,0,12.31-4.75l9.52,8.05,9.6-9.59-7.82-9.23a36.71,36.71,0,0,0,5.34-12.08Z" style="fill: #fff"/>
    <path d="M313,354.06H294.58l-1.09-13a39.54,39.54,0,0,1-9.41-4.15L274.49,345l-13-13,8.42-10a39.07,39.07,0,0,1-3.71-9.59l-12.53-1.05V293.08l13-1.09a39.54,39.54,0,0,1,4.15-9.41L262.69,273l13-13,9.95,8.42a39.07,39.07,0,0,1,9.59-3.71l1-12.53h18.38l1.09,13a39.54,39.54,0,0,1,9.41,4.15l9.59-8.12,13,13-8.42,9.95a39.07,39.07,0,0,1,3.71,9.59l12.53,1v18.38l-13,1.08a39.36,39.36,0,0,1-4.15,9.41l8.12,9.6-13,13-10-8.42a39.07,39.07,0,0,1-9.59,3.71Zm-13.57-5.23h8.75l1-11.64,2-.38a34,34,0,0,0,11.44-4.41l1.61-1,9.13,7.72,6.19-6.19L331.89,324l1.12-1.64a34.23,34.23,0,0,0,5-11.22l.44-1.84,11.92-1v-8.75l-11.64-1-.37-2a34,34,0,0,0-4.42-11.44l-1-1.61,7.72-9.13-6.19-6.19-8.91,7.55-1.64-1.12a34.14,34.14,0,0,0-11.22-5l-1.84-.44-1-11.92h-8.75l-1,11.64-2,.37a34,34,0,0,0-11.44,4.42l-1.61,1L276,267.1l-6.19,6.18,7.54,8.92-1.12,1.64a34.14,34.14,0,0,0-5,11.22l-.44,1.84-11.92,1v8.75l11.64,1,.37,1.95A34.21,34.21,0,0,0,275.33,321l1,1.61-7.72,9.12,6.19,6.19,8.91-7.54,1.64,1.12a34.23,34.23,0,0,0,11.22,5l1.84.44Z"/>
    <path d="M328.78,303.11A24.17,24.17,0,1,1,304.62,279,24.17,24.17,0,0,1,328.78,303.11Z" style="fill: #167f89"/>
    <path d="M312.82,297.08v-1.36a6.5,6.5,0,0,0-5.73-6.44V285.6h-4.43v3.65a6.49,6.49,0,0,0-6.25,6.47v2.91c0,1.38.6,3.4,3.45,5.2l1.25.5v0l6,2.31c.94.63,1.29,1.19,1.29,1.42V311a2.06,2.06,0,0,1-2.06,2.06H302.9a2.06,2.06,0,0,1-2.06-2.06v-1.36h-4.43V311a6.5,6.5,0,0,0,6.25,6.48v3.15h4.43v-3.19a6.49,6.49,0,0,0,5.73-6.44v-2.91c0-1.38-.61-3.42-3.52-5.27l-1-.38,0,0-5.47-2.1-.19-.07h0l-.64-.24c-.89-.61-1.21-1.1-1.21-1.36v-2.91a2.06,2.06,0,0,1,2.06-2.06h3.43a2.06,2.06,0,0,1,2.06,2.06v1.36Z" style="fill: #fff"/>
    <path d="M116.31,264.7h50.88a17.92,17.92,0,0,0,0-35.84H109.74v5.34h57.45a12.58,12.58,0,0,1,0,25.16H116.31Z"/>
    <path d="M38.6,293h12v-5.34h-12a11.46,11.46,0,1,1,0-22.92h80.13v-5.34H38.6a16.8,16.8,0,0,0,0,33.6Z"/>
    <g>
      <g>
        <rect x="42.23" y="277.38" width="119.59" height="59.69" rx="2.13" style="fill: #fff"/>
        <path d="M159.69,339.73H44.36a4.81,4.81,0,0,1-4.8-4.8V279.51a4.82,4.82,0,0,1,4.8-4.81H159.69a4.81,4.81,0,0,1,4.8,4.81v55.42A4.8,4.8,0,0,1,159.69,339.73ZM44.9,334.39H159.15V280.05H44.9Z"/>
      </g>
      <g>
        <rect x="51.17" y="285.54" width="9.14" height="5.34"/>
        <rect x="64.4" y="285.54" width="9.14" height="5.34"/>
        <rect x="77.63" y="285.54" width="9.14" height="5.34"/>
        <rect x="90.85" y="285.54" width="9.14" height="5.34"/>
        <rect x="104.08" y="285.54" width="9.14" height="5.34"/>
        <rect x="117.31" y="285.54" width="9.14" height="5.34"/>
        <rect x="130.53" y="285.54" width="9.14" height="5.34"/>
        <rect x="143.76" y="285.54" width="9.14" height="5.34"/>
        <g>
          <rect x="51.17" y="297.77" width="9.14" height="5.34"/>
          <rect x="64.4" y="297.77" width="9.14" height="5.34"/>
          <rect x="77.63" y="297.77" width="9.14" height="5.34"/>
          <rect x="90.85" y="297.77" width="9.14" height="5.34"/>
          <rect x="104.08" y="297.77" width="9.14" height="5.34"/>
          <rect x="117.31" y="297.77" width="9.14" height="5.34"/>
          <rect x="130.53" y="297.77" width="9.14" height="5.34"/>
          <rect x="143.76" y="297.77" width="9.14" height="5.34"/>
        </g>
        <g>
          <rect x="51.17" y="310" width="9.14" height="5.34"/>
          <rect x="64.4" y="310" width="9.14" height="5.34"/>
          <rect x="77.63" y="310" width="9.14" height="5.34"/>
          <rect x="90.85" y="310" width="9.14" height="5.34"/>
          <rect x="104.08" y="310" width="9.14" height="5.34"/>
          <rect x="117.31" y="310" width="9.14" height="5.34"/>
          <rect x="130.53" y="310" width="9.14" height="5.34"/>
          <rect x="143.76" y="310" width="9.14" height="5.34"/>
        </g>
        <g>
          <rect x="51.17" y="322.23" width="9.14" height="5.34"/>
          <rect x="64.4" y="322.23" width="9.14" height="5.34"/>
          <rect x="77.63" y="322.23" width="48.95" height="5.34"/>
          <rect x="130.53" y="322.23" width="9.14" height="5.34"/>
          <rect x="143.76" y="322.23" width="9.14" height="5.34"/>
        </g>
      </g>
    </g>
    <g>
      <path d="M709.74,379.78V262.6a6.33,6.33,0,0,1,6.32-6.32H888.22a6.31,6.31,0,0,1,6.31,6.32V379.78" style="fill: #fff"/>
      <path d="M897.21,379.78h-5.35V262.6a3.65,3.65,0,0,0-3.64-3.65H716.06a3.65,3.65,0,0,0-3.64,3.65V379.78h-5.35V262.6a9,9,0,0,1,9-9H888.22a9,9,0,0,1,9,9Z"/>
    </g>
    <rect x="723.18" y="269.72" width="157.92" height="106.89" style="fill: #76d0d8"/>
    <g>
      <path d="M682.22,379.2v11.33s8.29,6.19,14.38,6.19H907.68c6.1,0,14.39-6.19,14.39-6.19V379.2Z" style="fill: #fff"/>
      <path d="M907.68,399.39H696.6c-6.79,0-15.06-6-16-6.72l-1.07-.8V376.53H924.74v15.34l-1.07.8C922.75,393.36,914.47,399.39,907.68,399.39ZM684.89,389.15c2.73,1.84,8,4.9,11.71,4.9H907.68c3.7,0,9-3.06,11.72-4.9v-7.28H684.89Z"/>
    </g>
    <polygon points="711.63 381.67 707.86 377.89 743.33 342.42 755.04 354.13 796.84 312.33 815.32 330.8 861.67 284.45 865.44 288.22 815.32 338.35 796.84 319.88 755.04 361.68 743.33 349.97 711.63 381.67"/>
    <polygon points="868.93 312.37 863.59 312.37 863.59 288.17 839.39 288.17 839.39 282.83 868.93 282.83 868.93 312.37"/>
    <rect x="735.63" y="298.5" width="55.42" height="5.34" style="fill: #fff"/>
    <rect x="735.63" y="314.18" width="29.67" height="5.34" style="fill: #fff"/>
    <path d="M593.34,118.49a29.18,29.18,0,1,1-29.18-29.18A29.17,29.17,0,0,1,593.34,118.49Z" style="fill: #76d0d8"/>
    <polygon points="563.73 121.99 549.33 107.41 552.17 104.6 563.73 116.3 581.28 98.53 584.13 101.34 563.73 121.99"/>
    <path d="M570.51,118.49a6.35,6.35,0,1,1-6.35-6.34A6.34,6.34,0,0,1,570.51,118.49Z" style="fill: #fff"/>
    <path d="M564.16,126.83a8.34,8.34,0,1,1,8.35-8.34A8.35,8.35,0,0,1,564.16,126.83Zm0-12.68a4.34,4.34,0,1,0,4.35,4.34A4.34,4.34,0,0,0,564.16,114.15Z"/>
    <g>
      <rect x="561.13" y="88.76" width="4" height="4.86"/>
      <rect x="533.98" y="117.12" width="4.86" height="4"/>
      <rect x="562.34" y="143.4" width="4" height="4.86"/>
      <rect x="588.63" y="115.9" width="4.86" height="4"/>
    </g>
    <path d="M432.82,213.45h5.35v112c0,51.32,32.74,93.07,84,93.07s84-41.75,84-93.07V273.54h5.35v51.89c0,54.27-35.1,98.41-89.31,98.41s-89.39-44.14-89.39-98.41Z"/>
    <g>
      <path d="M87,225.41H113.9c.18-2.54.75-5.86,2.36-8,9.94-12.8,10.58-25,10.58-25.86a26.39,26.39,0,0,0-52.78,0c0,.87.62,13.05,10.57,25.86C86.23,219.55,86.78,222.87,87,225.41Z" style="fill: #febf12"/>
      <path d="M83.06,191.46h-4a21.36,21.36,0,0,1,21.39-21.28v4A17.35,17.35,0,0,0,83.06,191.46Z" style="fill: #fff"/>
      <g>
        <rect x="88.82" y="196.11" width="4" height="29.47" transform="translate(-35.95 19.45) rotate(-10.21)"/>
        <rect x="95.34" y="208.84" width="29.47" height="4" transform="translate(-116.93 281.81) rotate(-79.79)"/>
      </g>
      <polygon points="109.38 201.98 107.61 201.98 104.47 200.42 101.33 201.98 99.55 201.98 96.42 200.42 93.28 201.98 91.5 201.98 87.48 199.98 89.26 196.4 92.39 197.96 95.53 196.4 97.31 196.4 100.44 197.96 103.57 196.4 105.35 196.4 108.49 197.96 111.64 196.4 113.41 199.98 109.38 201.98"/>
      <g>
        <rect x="87.95" y="226.06" width="23.74" height="12.67" style="fill: #fff"/>
        <rect x="83.29" y="223.73" width="34.32" height="4"/>
        <rect x="83.29" y="230.39" width="34.32" height="4"/>
        <rect x="83.29" y="237.06" width="34.32" height="4"/>
        <rect x="87.96" y="243.73" width="24.98" height="4"/>
        <rect x="85.27" y="226.08" width="4" height="12.67"/>
        <rect x="109.78" y="226.08" width="4" height="12.67"/>
      </g>
      <g>
        <rect x="98.45" y="155.08" width="4" height="5.23"/>
        <rect x="89.72" y="156.23" width="4" height="5.23" transform="translate(-38 29.16) rotate(-15)"/>
        <rect x="81.59" y="159.6" width="4" height="5.23" transform="translate(-69.89 63.5) rotate(-29.99)"/>
        <rect x="74.61" y="164.96" width="4" height="5.23" transform="translate(-96.05 103.23) rotate(-44.99)"/>
        <rect x="69.25" y="171.94" width="4" height="5.23" transform="translate(-115.54 148.98) rotate(-60)"/>
        <rect x="65.88" y="180.07" width="4" height="5.23" transform="translate(-126.15 200.97) rotate(-75)"/>
        <rect x="64.12" y="189.41" width="5.23" height="4"/>
        <rect x="65.26" y="198.14" width="5.23" height="4" transform="translate(-49.48 24.39) rotate(-15)"/>
        <rect x="68.63" y="206.27" width="5.23" height="4" transform="translate(-94.58 63.51) rotate(-29.99)"/>
        <rect x="73.99" y="213.25" width="5.23" height="4" transform="translate(-129.77 117.22) rotate(-45)"/>
        <rect x="122.29" y="212.64" width="4" height="5.23" transform="translate(-115.8 150.9) rotate(-44.99)"/>
        <rect x="127.65" y="205.66" width="4" height="5.23" transform="translate(-115.55 216.36) rotate(-59.99)"/>
        <rect x="131.01" y="197.53" width="4" height="5.23" transform="translate(-94.73 276.84) rotate(-75)"/>
        <rect x="131.55" y="189.41" width="5.23" height="4"/>
        <rect x="130.4" y="180.69" width="5.23" height="4" transform="translate(-42.75 40.65) rotate(-15)"/>
        <rect x="127.03" y="172.56" width="5.23" height="4" transform="translate(-69.92 88.24) rotate(-30.01)"/>
        <rect x="121.67" y="165.57" width="5.23" height="4" transform="translate(-82.09 136.97) rotate(-45)"/>
        <rect x="114.69" y="160.22" width="5.23" height="4" transform="translate(-81.83 182.72) rotate(-60.01)"/>
        <rect x="106.56" y="156.85" width="5.23" height="4" transform="translate(-72.51 223.19) rotate(-75)"/>
      </g>
    </g>
    <rect x="170.11" y="91.97" width="20.98" height="20.98" style="fill: #ccd793"/>
    <g>
      <g>
        <path d="M445.05,268.15V235a36,36,0,1,1,61.47-25.42c0,.54,0,1.08,0,1.63l5,8.7,6.61,11.45h-8.36v14.21a9.7,9.7,0,0,1-9.7,9.71H484.68v12.92" style="fill: #fff"/>
        <path d="M486.75,268.15h-4.14V255.23a2.06,2.06,0,0,1,2.07-2.07h15.37a7.64,7.64,0,0,0,7.63-7.64V231.31a2.07,2.07,0,0,1,2.07-2.07h4.78l-9.84-17.05a2,2,0,0,1-.28-1.12c0-.52,0-1,0-1.54a33.92,33.92,0,1,0-57.93,24,2,2,0,0,1,.6,1.46v33.2H443V235.79a38.06,38.06,0,1,1,65.61-26.26c0,.37,0,.74,0,1.11l11.34,19.63a2.07,2.07,0,0,1-1.8,3.11h-6.29v12.14a11.79,11.79,0,0,1-11.77,11.78h-13.3Z"/>
      </g>
      <path d="M432,268.15V235a36,36,0,1,1,61.47-25.42c0,.54,0,1.08,0,1.63l5,8.7,6.61,11.45H496.7v14.21a9.7,9.7,0,0,1-9.7,9.71H471.63v12.92" style="fill: #1bb1bf"/>
      <polygon points="472.62 212.49 469.69 215.42 476.73 222.45 440.55 222.45 440.55 226.59 476.73 226.59 469.7 233.63 472.62 236.56 484.65 224.53 472.62 212.49"/>
      <polygon points="498.38 198.54 462.2 198.54 469.23 191.51 466.3 188.58 454.27 200.61 466.3 212.64 469.23 209.72 462.2 202.68 498.38 202.68 498.38 198.54"/>
    </g>
    <g>
      <rect x="505.31" y="306.82" width="27.09" height="5.34"/>
      <rect x="491.12" y="306.82" width="9.03" height="5.34"/>
      <rect x="481.55" y="326.38" width="27.09" height="5.34"/>
      <rect x="464.12" y="326.45" width="9.03" height="5.34"/>
      <polygon points="528.88 335.76 525.95 338.69 532.98 345.73 496.8 345.72 496.8 349.86 532.98 349.87 525.95 356.9 528.88 359.83 540.9 347.8 528.88 335.76"/>
    </g>
    <ellipse cx="703.33" cy="148.64" rx="60.49" ry="61.04" style="fill: #fff"/>
    <path d="M703.48,211.78a63.5,63.5,0,1,1,63.5-63.5A63.56,63.56,0,0,1,703.48,211.78Zm0-117A53.5,53.5,0,1,0,757,148.28,53.55,53.55,0,0,0,703.48,94.79Z" style="fill: #167f89"/>
    <path d="M722.92,173.54a9.89,9.89,0,0,0-6.66-2.66h0a9.53,9.53,0,0,0-4.87,1.37c-1.53.9-3.54,3-6.15,6.32-2.85-3.83-6-5.78-9.27-5.8h-.06a7.23,7.23,0,0,0-6.17,2.92,10.13,10.13,0,0,0-2.15,6,9.58,9.58,0,0,0,2.23,6.2,7.47,7.47,0,0,0,6.06,2.82h0c3.29,0,6.43-1.88,9.34-5.6a31.13,31.13,0,0,0,5.63,6,8.93,8.93,0,0,0,5.3,1.7h.05a9.37,9.37,0,0,0,6.81-2.79c1.88-1.87,2.85-4.69,2.87-8.41S724.9,175.31,722.92,173.54ZM716,175.07a5.35,5.35,0,0,1,4.11,1.81,7.37,7.37,0,0,1,1.59,5.11c0,2.38-.6,4.11-1.76,5.15a5.68,5.68,0,0,1-3.88,1.57h0a6.2,6.2,0,0,1-3.75-1.45,26.74,26.74,0,0,1-4.68-5.3,33.86,33.86,0,0,1,5-5.65A5.52,5.52,0,0,1,716,175.07Zm-20.13,11.48h0a3.81,3.81,0,0,1-3-1.39,5.75,5.75,0,0,1,0-7,3.75,3.75,0,0,1,3-1.3h0c2,0,4.3,1.68,6.82,4.95C700.24,185,698,186.55,695.91,186.55Z"/>
    <path d="M737.14,118.94a3.07,3.07,0,0,0-2.34-1l-9.94.8a3.18,3.18,0,0,0,.11-1l-.86-5.17a3.72,3.72,0,0,0-1.12-2.38,3.28,3.28,0,0,0-2.55-1l-3.53.41a3.4,3.4,0,0,0-3.17,3.54l-.33,5.35v.07a3.25,3.25,0,0,0,.23,1l-7.74.62a3.59,3.59,0,0,0-3.39,3.51l0,.85a3.55,3.55,0,0,0,1,2.34,3.05,3.05,0,0,0,2.21,1h.1l5.69-.26a2.43,2.43,0,0,0-.09.65l-.06.6a3.18,3.18,0,0,0,.32,1.45,3.55,3.55,0,0,0-1.72,2.68l-.19,1.32v.13a3.66,3.66,0,0,0,.16,1l-1.12,0a3.12,3.12,0,0,0-2.23,1.26,3.7,3.7,0,0,0-.8,2.43v2.29a4.05,4.05,0,0,0,1.06,2.43,3.48,3.48,0,0,0,.86.69,3.26,3.26,0,0,0-.16,1l-1.16,11.8v.13a3.4,3.4,0,0,0,3.37,3.28h.11l6,0h0a3.38,3.38,0,0,0,3.28-3.51l-.39-12.14a3.78,3.78,0,0,0-.14-.84l3.75-.28a1.46,1.46,0,0,0,0,.29l0,2.64a3,3,0,0,0,.66,1.72,3.32,3.32,0,0,0-.48,1.77l-.46,6.65v.1a3.38,3.38,0,0,0,3.39,3.28h.11l4.28-.14a3.39,3.39,0,0,0,3.28-3.55l-.57-7a3.32,3.32,0,0,0-.72-2,3.14,3.14,0,0,0,.66-2.21l-.13-1.35a4.16,4.16,0,0,0-.44-1.55,3.07,3.07,0,0,0,.47-.41,3.34,3.34,0,0,0,1-2.49l-.33-1.76a3.31,3.31,0,0,0-1.22-2.28,3.43,3.43,0,0,0-2.35-.84l-1.32,0a3.8,3.8,0,0,0,.06-.59v-.71a3.68,3.68,0,0,0-1.42-2.89,3.54,3.54,0,0,0,.39-1.57l-.08-1.12a2.86,2.86,0,0,0-.27-1.17l7.23-.32c1.68-.06,2.87-.59,3.6-3a10,10,0,0,0,.4-2.38A3.55,3.55,0,0,0,737.14,118.94ZM724.79,157.2l.47-6.63v-.1a.7.7,0,0,1,.44-.68h.24l1.89-.31,1.4-.19a.73.73,0,0,1,.69.74l.57,7a.71.71,0,0,1-.69.73l-4.28.14A.7.7,0,0,1,724.79,157.2Zm1.88-13.44h2.64c.29,0,.4.61.42.84l.13,1.35a.42.42,0,0,1-.12.38,1,1,0,0,1-.62.23l-1.89.31-1.43.19-.4.06a.61.61,0,0,1-.26-.06.34.34,0,0,1-.07-.19l-.05-2.64c0-.11.23-.28.58-.38Zm3.45-5.84a.74.74,0,0,1,.28.46l.32,1.73a.91.91,0,0,1-.72.71l-3.49.26h-.7a4.55,4.55,0,0,0-.63.09l-9.91.74h-.06l-4.41.32a2.6,2.6,0,0,0-.39.05l-1.31.09a1.33,1.33,0,0,1-.65-1v-2.29a1,1,0,0,1,.5-.9l20.67-.51A.76.76,0,0,1,730.12,137.92Zm-14,7.36.39,12.15a.71.71,0,0,1-.66.73l-6,0a.69.69,0,0,1-.51-.19.67.67,0,0,1-.22-.45l1.15-11.78v-.13a.7.7,0,0,1,.56-.7l4.6-.34A.71.71,0,0,1,716.07,145.28Zm9.48-10.84a.44.44,0,0,1-.16.37.89.89,0,0,1-.58.18h0l-11.64.26a.67.67,0,0,1-.5-.21.66.66,0,0,1-.21-.45l.18-1.3v-.13a1.92,1.92,0,0,1,1.38-.89l10.83.58a.91.91,0,0,1,.71.89Zm-1.23-4.6a.74.74,0,0,1-.47.21h0l-9.11-.51a.87.87,0,0,1-.58-.21.46.46,0,0,1-.12-.26l.06-.63c0-.33.46-.67.9-.67h0l8.2-.36a1.68,1.68,0,0,1,.88.33c.25.19.33.35.33.48l.08,1.12A.71.71,0,0,1,724.32,129.84Zm-18.6-4.58a.52.52,0,0,1-.34-.16.75.75,0,0,1-.21-.53l0-.86c0-.33.51-.73.85-.74l28.94-2.3h0c.27,0,.38.41.39.65a6.93,6.93,0,0,1-.26,1.84A1,1,0,0,1,734,124Zm10.71-12.1a.7.7,0,0,1,.66-.76l3.57-.41c.36,0,.75.4.79.93l.85,5.16c0,.21-.61.76-1.17.79l-4.28.29a.71.71,0,0,1-.75-.61l.33-5.33Z"/>
    <g>
      <path d="M774.17,177.15l-4.17-1.7q-1.32,3.24-3,6.33l4,2.1C772.19,181.69,773.23,179.44,774.17,177.15Z" style="fill-rule: evenodd"/>
      <path d="M778.1,164.46l-4.4-1q-.74,3.41-1.8,6.74l4.29,1.37C776.94,169.27,777.58,166.87,778.1,164.46Z" style="fill-rule: evenodd"/>
      <path d="M779.76,151.31l-4.5-.17c-.1,2.32-.28,4.65-.61,7l4.46.61C779.45,156.25,779.66,153.78,779.76,151.31Z" style="fill-rule: evenodd"/>
      <path d="M750.25,208.62l-2.76-3.56c-.9.74-1.86,1.4-2.81,2.08s-1.92,1.3-2.9,1.93l2.4,3.81c1-.67,2.09-1.32,3.09-2.06S749.29,209.4,750.25,208.62Z" style="fill-rule: evenodd"/>
      <polygon points="760.02 199.6 756.69 196.58 754.28 199.1 751.75 201.51 754.77 204.84 757.46 202.29 760.02 199.6" style="fill-rule: evenodd"/>
      <path d="M768,189.05l-3.8-2.41c-.63,1-1.25,2-1.94,2.91s-1.34,1.9-2.08,2.8l3.55,2.77c.79-1,1.5-2,2.21-3S767.36,190.09,768,189.05Z" style="fill-rule: evenodd"/>
      <path d="M713.82,223.92l-.6-4.46a67.61,67.61,0,0,1-7,.61l.17,4.5A73.2,73.2,0,0,0,713.82,223.92Z" style="fill-rule: evenodd"/>
      <path d="M726.79,221l-1.37-4.28q-3.33,1-6.75,1.8l1,4.39Q723.25,222.13,726.79,221Z" style="fill-rule: evenodd"/>
      <path d="M739,215.87l-2.09-4c-2.06,1.08-4.17,2.07-6.33,3l1.7,4.16C734.57,218.07,736.82,217,739,215.87Z" style="fill-rule: evenodd"/>
      <path d="M674.61,219l1.7-4.16c-2.15-.88-4.26-1.87-6.32-2.95l-2.1,4C670.08,217,672.32,218,674.61,219Z" style="fill-rule: evenodd"/>
      <path d="M687.31,222.91l1-4.4c-2.28-.49-4.53-1.1-6.74-1.8L680.14,221Q683.68,222.12,687.31,222.91Z" style="fill-rule: evenodd"/>
      <path d="M700.45,224.56l.18-4.49c-2.33-.1-4.65-.29-7-.61l-.6,4.45A73,73,0,0,0,700.45,224.56Z" style="fill-rule: evenodd"/>
      <path d="M643.15,195.06l3.55-2.76c-.74-.9-1.39-1.86-2.07-2.81s-1.3-1.93-1.93-2.91L638.89,189c.67,1,1.32,2.09,2.06,3.08S642.37,194.1,643.15,195.06Z" style="fill-rule: evenodd"/>
      <polygon points="652.16 204.82 655.19 201.49 652.66 199.08 650.25 196.55 646.92 199.58 649.48 202.26 652.16 204.82" style="fill-rule: evenodd"/>
      <path d="M662.72,212.83l2.4-3.8c-1-.63-2-1.24-2.9-1.94s-1.91-1.33-2.81-2.07l-2.76,3.55c1,.78,2,1.49,3,2.21S661.67,212.17,662.72,212.83Z" style="fill-rule: evenodd"/>
      <path d="M627.84,158.63l4.46-.61c-.32-2.3-.51-4.63-.6-7l-4.5.17C627.3,153.71,627.5,156.18,627.84,158.63Z" style="fill-rule: evenodd"/>
      <path d="M630.76,171.59l4.29-1.37c-.7-2.22-1.31-4.47-1.8-6.74l-4.4,1C629.37,166.84,630,169.23,630.76,171.59Z" style="fill-rule: evenodd"/>
      <path d="M635.9,183.81l4-2.1q-1.64-3.09-3-6.32l-4.17,1.69C633.7,179.38,634.74,181.62,635.9,183.81Z" style="fill-rule: evenodd"/>
      <path d="M632.79,119.42l4.17,1.7a68.51,68.51,0,0,1,2.95-6.32l-4-2.11C634.78,114.88,633.73,117.13,632.79,119.42Z" style="fill-rule: evenodd"/>
      <path d="M628.86,132.11l4.4.95q.74-3.41,1.8-6.74L630.77,125Q629.65,128.49,628.86,132.11Z" style="fill-rule: evenodd"/>
      <path d="M627.2,145.26l4.5.17c.1-2.32.28-4.65.61-7l-4.46-.61C627.51,140.32,627.31,142.79,627.2,145.26Z" style="fill-rule: evenodd"/>
      <path d="M656.71,88l2.76,3.56c.9-.74,1.86-1.4,2.81-2.08s1.92-1.3,2.9-1.93l-2.4-3.81c-1,.67-2.09,1.32-3.09,2.06S657.67,87.17,656.71,88Z" style="fill-rule: evenodd"/>
      <polygon points="646.94 96.97 650.27 99.99 652.68 97.47 655.21 95.06 652.19 91.73 649.5 94.28 646.94 96.97" style="fill-rule: evenodd"/>
      <path d="M638.93,107.52l3.8,2.41c.63-1,1.25-2,1.94-2.91s1.34-1.9,2.08-2.8l-3.55-2.77c-.79,1-1.5,2-2.21,3S639.6,106.48,638.93,107.52Z" style="fill-rule: evenodd"/>
      <path d="M693.14,72.65l.6,4.46c2.31-.33,4.63-.51,7-.61l-.17-4.5A73.2,73.2,0,0,0,693.14,72.65Z" style="fill-rule: evenodd"/>
      <path d="M680.17,75.57l1.37,4.28q3.33-1,6.75-1.8l-.95-4.39Q683.71,74.44,680.17,75.57Z" style="fill-rule: evenodd"/>
      <path d="M668,80.7l2.09,4c2.06-1.08,4.17-2.07,6.33-3l-1.7-4.16C672.39,78.5,670.14,79.55,668,80.7Z" style="fill-rule: evenodd"/>
      <path d="M732.35,77.6l-1.7,4.16c2.15.88,4.26,1.87,6.32,2.95l2.1-4C736.88,79.58,734.64,78.53,732.35,77.6Z" style="fill-rule: evenodd"/>
      <path d="M719.65,73.66l-.95,4.4c2.28.49,4.53,1.1,6.74,1.8l1.38-4.28Q723.28,74.46,719.65,73.66Z" style="fill-rule: evenodd"/>
      <path d="M706.51,72l-.18,4.49c2.33.1,4.65.29,7,.61l.61-4.45A73.2,73.2,0,0,0,706.51,72Z" style="fill-rule: evenodd"/>
      <path d="M763.81,101.51l-3.55,2.76c.74.9,1.4,1.86,2.07,2.81s1.31,1.93,1.94,2.91l3.8-2.41c-.67-1-1.32-2.09-2.06-3.08S764.59,102.47,763.81,101.51Z" style="fill-rule: evenodd"/>
      <polygon points="754.8 91.75 751.77 95.08 754.3 97.49 756.71 100.02 760.04 96.99 757.48 94.31 754.8 91.75" style="fill-rule: evenodd"/>
      <path d="M744.24,83.74l-2.4,3.8c1,.63,2,1.24,2.9,1.94s1.91,1.33,2.81,2.07L750.31,88c-1-.78-2-1.49-3-2.21S745.29,84.4,744.24,83.74Z" style="fill-rule: evenodd"/>
      <path d="M779.12,138l-4.46.6c.32,2.3.51,4.63.6,6.95l4.5-.17C779.66,142.86,779.46,140.39,779.12,138Z" style="fill-rule: evenodd"/>
      <path d="M776.2,125l-4.29,1.37c.7,2.22,1.31,4.47,1.8,6.74l4.4-.94C777.59,129.73,776.94,127.34,776.2,125Z" style="fill-rule: evenodd"/>
      <path d="M771.07,112.76l-4,2.1q1.63,3.09,2.95,6.32l4.17-1.69C773.27,117.19,772.22,115,771.07,112.76Z" style="fill-rule: evenodd"/>
    </g>
    <path d="M675.7,114.3h-.08c-3.79,0-5.17,4.06-6,8-.9,4.2-1.11,11-1.2,17.11a89.3,89.3,0,0,0,1.21,17.1c1,5.2,2.48,8,4.52,8.67v11.3h2.79v-11.8c1.58-1.06,3-3.47,4.12-7.12a62.55,62.55,0,0,0,2.4-17.13C683.62,127.94,680.71,114.37,675.7,114.3Zm-1.57,12v35.5c-1.42-2.34-3.12-9.9-2.94-22.27.09-6,.29-12.6,1.13-16.57,1.21-5.63,2.65-5.83,3.26-5.83h.08c.47,0,1.93,1.6,3.18,6.31a66,66,0,0,1,1.81,17c-.14,9.63-2,16.73-3.73,20V126.26Z"/>
    <path d="M848.27,246.82h-10.4l-.61-7.29a21.31,21.31,0,0,1-5.19-2.29l-5.38,4.56-7.36-7.36,4.72-5.58a22.23,22.23,0,0,1-2-5.29l-7-.59v-10.4l7.28-.61a22.29,22.29,0,0,1,2.29-5.19L820,201.4l7.36-7.36,5.58,4.72a22.23,22.23,0,0,1,5.29-2l.58-7h10.41l.61,7.29a22,22,0,0,1,5.19,2.28l5.38-4.55,7.35,7.36L863,207.65a21.81,21.81,0,0,1,2.05,5.29l7,.59v10.4l-7.28.61a21.88,21.88,0,0,1-2.29,5.19l4.55,5.38-7.36,7.36-5.57-4.72a22.23,22.23,0,0,1-5.29,2.05Zm-7.59-3.07h4.77l.55-6.5,1.14-.21a18.88,18.88,0,0,0,6.37-2.46l1-.58,5.09,4.31,3.38-3.38-4.22-5,.66-1a19,19,0,0,0,2.76-6.25l.26-1.07,6.65-.56v-4.77l-6.5-.54-.21-1.14a19,19,0,0,0-2.47-6.38l-.57-.94,4.31-5.09-3.38-3.38-5,4.22-1-.66a19,19,0,0,0-6.25-2.76l-1.07-.26-.56-6.66h-4.77l-.54,6.51-1.14.21a19.15,19.15,0,0,0-6.38,2.46l-.94.58-5.1-4.31-3.37,3.37,4.21,5-.65,1a18.92,18.92,0,0,0-2.77,6.26l-.26,1.07-6.65.56v4.76l6.5.55.22,1.14a18.93,18.93,0,0,0,2.46,6.38l.58.94-4.31,5.09,3.37,3.38,5-4.22,1,.66a19.14,19.14,0,0,0,6.25,2.76l1.08.26Z"/>
    <circle cx="843.54" cy="218.25" r="13.52" style="fill: #febf12"/>
    <g>
      <path d="M852,218.25a8.42,8.42,0,1,1-8.42-8.41A8.42,8.42,0,0,1,852,218.25Z" style="fill: #fff"/>
      <path d="M843.54,228.2a9.95,9.95,0,1,1,10-9.95A10,10,0,0,1,843.54,228.2Zm0-16.83a6.89,6.89,0,1,0,6.89,6.88A6.89,6.89,0,0,0,843.54,211.37Z"/>
    </g>
    <path d="M891.78,190.24v-4.86l-4-.33a9.61,9.61,0,0,0-.7-1.83l2.71-3.19-3.44-3.44-3.1,2.61a10.15,10.15,0,0,0-1.78-.79l-.35-4.17h-4.86l-.34,4a9.52,9.52,0,0,0-1.82.7l-3.2-2.71-3.44,3.44,2.62,3.1a9.18,9.18,0,0,0-.79,1.78l-4.18.35v4.86l4,.34a10.53,10.53,0,0,0,.7,1.82l-2.7,3.2,3.44,3.44,3.09-2.62a9.46,9.46,0,0,0,1.78.79l.35,4.17h4.87l.33-4a9.3,9.3,0,0,0,1.82-.71l3.2,2.71,3.44-3.44-2.62-3.09a10,10,0,0,0,.8-1.79Zm-13.35,2a4.65,4.65,0,1,1,4.65-4.65A4.65,4.65,0,0,1,878.43,192.24Z" style="fill: #ccd793"/>
    <path d="M579.16,464.46a3.78,3.78,0,0,1-1,.07H515a3.88,3.88,0,0,1-1-.07V458a3.64,3.64,0,0,1,1-.08h63.12a3.54,3.54,0,0,1,1,.08Z" style="fill: #167f89"/>
    <g>
      <path d="M578.13,379.12H515a1,1,0,0,0-1,1v75.93a1,1,0,0,0,1,1h63.12a1,1,0,0,0,1-1V380.16A1,1,0,0,0,578.13,379.12Z" style="fill: #fff"/>
      <path d="M578.13,459.73H515a3.64,3.64,0,0,1-3.63-3.64V380.16a3.64,3.64,0,0,1,3.63-3.63h63.12a3.64,3.64,0,0,1,3.63,3.63v75.93A3.64,3.64,0,0,1,578.13,459.73Zm-61.56-5.19h60V381.72h-60Z" style="fill: #282d33"/>
    </g>
    <rect x="522.9" y="388.27" width="47.33" height="11.35" style="fill: #167f89"/>
    <g>
      <rect x="520.73" y="407.36" width="9.88" height="5.19" style="fill: #76d0d8"/>
      <rect x="534.66" y="407.36" width="9.88" height="5.19" style="fill: #76d0d8"/>
    </g>
    <rect x="548.59" y="407.36" width="9.88" height="5.19" style="fill: #ccd793"/>
    <rect x="562.53" y="407.36" width="9.88" height="5.19"/>
    <g>
      <rect x="520.73" y="416.24" width="9.88" height="5.19" style="fill: #76d0d8"/>
      <rect x="534.66" y="416.24" width="9.88" height="5.19" style="fill: #76d0d8"/>
      <rect x="548.59" y="416.24" width="9.88" height="5.19" style="fill: #76d0d8"/>
      <rect x="562.53" y="416.24" width="9.88" height="5.19" style="fill: #76d0d8"/>
    </g>
    <g>
      <rect x="520.73" y="425.13" width="9.88" height="5.19" style="fill: #76d0d8"/>
      <rect x="534.66" y="425.13" width="9.88" height="5.19" style="fill: #76d0d8"/>
      <rect x="548.59" y="425.13" width="9.88" height="5.19" style="fill: #76d0d8"/>
      <rect x="562.53" y="425.13" width="9.88" height="5.19" style="fill: #76d0d8"/>
    </g>
    <g>
      <rect x="520.73" y="434.01" width="9.88" height="5.19" style="fill: #76d0d8"/>
      <rect x="534.66" y="434.01" width="9.88" height="5.19" style="fill: #76d0d8"/>
      <rect x="548.59" y="434.01" width="9.88" height="5.19" style="fill: #76d0d8"/>
      <rect x="562.53" y="434.01" width="9.88" height="5.19" style="fill: #76d0d8"/>
    </g>
    <g>
      <rect x="520.73" y="442.89" width="9.88" height="5.19" style="fill: #76d0d8"/>
      <rect x="534.66" y="442.89" width="9.88" height="5.19" style="fill: #76d0d8"/>
      <rect x="548.59" y="442.89" width="9.88" height="5.19" style="fill: #76d0d8"/>
      <rect x="562.53" y="442.89" width="9.88" height="5.19" style="fill: #76d0d8"/>
    </g>
    <g>
      <rect x="457.6" y="107.16" width="7.45" height="4.5" style="fill: #231f20"/>
      <rect x="470.96" y="107.16" width="7.45" height="4.5" style="fill: #231f20"/>
      <rect x="484.28" y="107.16" width="7.45" height="4.5" style="fill: #231f20"/>
      <rect x="417.48" y="107.16" width="7.45" height="4.5" style="fill: #231f20"/>
      <rect x="430.84" y="107.16" width="7.45" height="4.5" style="fill: #231f20"/>
      <rect x="444.15" y="107.16" width="7.45" height="4.5" style="fill: #231f20"/>
      <rect x="377.35" y="107.16" width="7.45" height="4.5" style="fill: #231f20"/>
      <rect x="390.71" y="107.16" width="7.45" height="4.5" style="fill: #231f20"/>
      <rect x="404.02" y="107.16" width="7.45" height="4.5" style="fill: #231f20"/>
    </g>
    <ellipse cx="831.74" cy="112.79" rx="4.92" ry="4.76"/>
    <g>
      <path d="M202.55,135.64H185.39a2.73,2.73,0,0,1-2.73-2.72V105.19a2.74,2.74,0,0,1,2.73-2.73H233a2.74,2.74,0,0,1,2.73,2.73v27.73a2.73,2.73,0,0,1-2.73,2.72H202.55Z" style="fill: #fff"/>
      <g>
        <path d="M233,101H185.39a4.24,4.24,0,0,0-4.23,4.23v27.73a4.23,4.23,0,0,0,4.23,4.22H233a4.23,4.23,0,0,0,4.23-4.22V105.19A4.24,4.24,0,0,0,233,101Zm-47.63,3H233a1.24,1.24,0,0,1,1.23,1.23v4.14H184.16v-4.14A1.24,1.24,0,0,1,185.39,104ZM233,134.14H185.39a1.23,1.23,0,0,1-1.23-1.22V115.18h50.09v17.74A1.23,1.23,0,0,1,233,134.14Z"/>
        <rect x="186.8" y="119.47" width="9.52" height="3"/>
        <rect x="186.8" y="124.5" width="16.14" height="3"/>
        <rect x="198.72" y="119.47" width="9.52" height="3"/>
        <rect x="210.65" y="119.47" width="9.52" height="3"/>
        <rect x="222.58" y="119.47" width="9.52" height="3"/>
      </g>
    </g>
    <g>
      <g>
        <path d="M645.47,232.47c-1.9-2.29-18.55-19.68-18.55-19.68l-56,1,.22,103.64L647,316.08Z" style="fill: #fff"/>
        <polygon points="644.31 252.85 644.31 233.85 625.35 233.85 644.31 252.85" style="fill: #d1f1f2"/>
        <rect x="595.04" y="245.09" width="39.42" height="3.38"/>
        <rect x="595.04" y="253.88" width="39.42" height="3.38"/>
        <rect x="595.04" y="271.3" width="39.42" height="3.38"/>
        <rect x="595.04" y="280.1" width="39.42" height="3.38"/>
        <rect x="595.04" y="297.52" width="39.42" height="3.38"/>
        <polygon points="582.62 307.35 577.32 303.94 579.16 301.1 581.89 302.86 587.03 296.41 589.67 298.51 582.62 307.35"/>
        <polygon points="582.62 283.94 577.32 280.52 579.16 277.68 581.89 279.44 587.03 272.99 589.67 275.1 582.62 283.94"/>
        <polygon points="582.62 257.72 577.32 254.31 579.16 251.47 581.89 253.23 587.03 246.78 589.67 248.88 582.62 257.72"/>
      </g>
      <path d="M648,318.51H568.23V210.89h58.64L648,232.07Zm-75.81-4H644V233.72l-18.83-18.83h-53Z"/>
      <polygon points="625.35 233.85 646.04 233.85 625.35 213.05 625.35 233.85"/>
    </g>
    <rect x="735.61" y="282.39" width="43.67" height="5.34" style="fill: #fff"/>
  </g>
</svg>
